<mxfile host="app.diagrams.net" modified="2023-09-24T16:15:37.841Z" agent="Mozilla/5.0 (Macintosh; Intel Mac OS X 10_15_7) AppleWebKit/537.36 (KHTML, like Gecko) Chrome/116.0.0.0 Safari/537.36" etag="KMqD4E0fpwCI3S9_Pu4e" version="21.8.2" type="github">
  <diagram name="Page-1" id="-YTyoHcldgfw0Ux7TE6U">
    <mxGraphModel dx="597" dy="380" grid="1" gridSize="10" guides="1" tooltips="1" connect="1" arrows="1" fold="1" page="1" pageScale="1" pageWidth="850" pageHeight="1100" math="0" shadow="0">
      <root>
        <mxCell id="0" />
        <mxCell id="1" parent="0" />
        <mxCell id="nmv7OSQEillkZlEBiglJ-1" value="&lt;font style=&quot;font-size: 18px;&quot;&gt;A(读)&lt;/font&gt;" style="shape=umlLifeline;perimeter=lifelinePerimeter;whiteSpace=wrap;html=1;container=1;dropTarget=0;collapsible=0;recursiveResize=0;outlineConnect=0;portConstraint=eastwest;newEdgeStyle={&quot;curved&quot;:0,&quot;rounded&quot;:0};" vertex="1" parent="1">
          <mxGeometry x="240" y="80" width="100" height="280" as="geometry" />
        </mxCell>
        <mxCell id="nmv7OSQEillkZlEBiglJ-2" value="&lt;font style=&quot;font-size: 18px;&quot;&gt;B(写)&lt;/font&gt;" style="shape=umlLifeline;perimeter=lifelinePerimeter;whiteSpace=wrap;html=1;container=1;dropTarget=0;collapsible=0;recursiveResize=0;outlineConnect=0;portConstraint=eastwest;newEdgeStyle={&quot;curved&quot;:0,&quot;rounded&quot;:0};" vertex="1" parent="1">
          <mxGeometry x="340" y="80" width="100" height="280" as="geometry" />
        </mxCell>
        <mxCell id="nmv7OSQEillkZlEBiglJ-3" value="&lt;font style=&quot;font-size: 18px;&quot;&gt;redis(空)&lt;br&gt;&lt;/font&gt;" style="shape=umlLifeline;perimeter=lifelinePerimeter;whiteSpace=wrap;html=1;container=1;dropTarget=0;collapsible=0;recursiveResize=0;outlineConnect=0;portConstraint=eastwest;newEdgeStyle={&quot;curved&quot;:0,&quot;rounded&quot;:0};" vertex="1" parent="1">
          <mxGeometry x="440" y="80" width="100" height="280" as="geometry" />
        </mxCell>
        <mxCell id="nmv7OSQEillkZlEBiglJ-4" value="&lt;font style=&quot;font-size: 18px;&quot;&gt;mysql(20)&lt;br&gt;&lt;/font&gt;" style="shape=umlLifeline;perimeter=lifelinePerimeter;whiteSpace=wrap;html=1;container=1;dropTarget=0;collapsible=0;recursiveResize=0;outlineConnect=0;portConstraint=eastwest;newEdgeStyle={&quot;curved&quot;:0,&quot;rounded&quot;:0};" vertex="1" parent="1">
          <mxGeometry x="540" y="80" width="100" height="280" as="geometry" />
        </mxCell>
        <mxCell id="nmv7OSQEillkZlEBiglJ-5" value="&lt;font color=&quot;#007fff&quot; style=&quot;font-size: 14px;&quot;&gt;1. 缓存未命中&lt;/font&gt;" style="html=1;verticalAlign=bottom;endArrow=block;curved=0;rounded=0;" edge="1" parent="1" target="nmv7OSQEillkZlEBiglJ-3">
          <mxGeometry width="80" relative="1" as="geometry">
            <mxPoint x="290" y="160" as="sourcePoint" />
            <mxPoint x="370" y="160" as="targetPoint" />
          </mxGeometry>
        </mxCell>
        <mxCell id="nmv7OSQEillkZlEBiglJ-6" value="&lt;font color=&quot;#007fff&quot; style=&quot;font-size: 14px;&quot;&gt;2. 读取 mysql 里的值&lt;/font&gt;" style="html=1;verticalAlign=bottom;endArrow=block;curved=0;rounded=0;" edge="1" parent="1" target="nmv7OSQEillkZlEBiglJ-4">
          <mxGeometry width="80" relative="1" as="geometry">
            <mxPoint x="290" y="190" as="sourcePoint" />
            <mxPoint x="490" y="190" as="targetPoint" />
          </mxGeometry>
        </mxCell>
        <mxCell id="nmv7OSQEillkZlEBiglJ-7" value="&lt;font color=&quot;#9933ff&quot; style=&quot;font-size: 14px;&quot;&gt;1. 写 mysql 的值为 21&lt;br&gt;&lt;/font&gt;" style="html=1;verticalAlign=bottom;endArrow=block;curved=0;rounded=0;" edge="1" parent="1">
          <mxGeometry width="80" relative="1" as="geometry">
            <mxPoint x="390" y="270" as="sourcePoint" />
            <mxPoint x="590" y="270" as="targetPoint" />
          </mxGeometry>
        </mxCell>
        <mxCell id="nmv7OSQEillkZlEBiglJ-8" value="&lt;font color=&quot;#9933ff&quot; style=&quot;font-size: 14px;&quot;&gt;2. 删除缓存里的值&lt;br&gt;&lt;/font&gt;" style="html=1;verticalAlign=bottom;endArrow=block;curved=0;rounded=0;" edge="1" parent="1">
          <mxGeometry width="80" relative="1" as="geometry">
            <mxPoint x="589.78" y="299.9999999999999" as="sourcePoint" />
            <mxPoint x="390.22444444444454" y="299.9999999999999" as="targetPoint" />
          </mxGeometry>
        </mxCell>
        <mxCell id="nmv7OSQEillkZlEBiglJ-10" value="&lt;font color=&quot;#007fff&quot; style=&quot;font-size: 14px;&quot;&gt;3. 将 20 写回缓存&lt;/font&gt;" style="html=1;verticalAlign=bottom;endArrow=block;curved=0;rounded=0;" edge="1" parent="1" source="nmv7OSQEillkZlEBiglJ-4" target="nmv7OSQEillkZlEBiglJ-2">
          <mxGeometry width="80" relative="1" as="geometry">
            <mxPoint x="300" y="200" as="sourcePoint" />
            <mxPoint x="600" y="200" as="targetPoint" />
          </mxGeometry>
        </mxCell>
        <mxCell id="nmv7OSQEillkZlEBiglJ-14" value="mysql: 20&amp;nbsp;&lt;br&gt;redis: 空" style="text;html=1;align=center;verticalAlign=middle;resizable=0;points=[];autosize=1;strokeColor=none;fillColor=none;" vertex="1" parent="1">
          <mxGeometry x="610" y="143" width="80" height="40" as="geometry" />
        </mxCell>
        <mxCell id="nmv7OSQEillkZlEBiglJ-15" value="mysql: 20&amp;nbsp;&lt;br&gt;redis: 20" style="text;html=1;align=center;verticalAlign=middle;resizable=0;points=[];autosize=1;strokeColor=none;fillColor=none;" vertex="1" parent="1">
          <mxGeometry x="610" y="183" width="80" height="40" as="geometry" />
        </mxCell>
        <mxCell id="nmv7OSQEillkZlEBiglJ-16" value="" style="shape=curlyBracket;whiteSpace=wrap;html=1;rounded=1;flipH=1;labelPosition=right;verticalLabelPosition=middle;align=left;verticalAlign=middle;" vertex="1" parent="1">
          <mxGeometry x="600" y="140" width="20" height="50" as="geometry" />
        </mxCell>
        <mxCell id="nmv7OSQEillkZlEBiglJ-17" value="mysql: 21&amp;nbsp;&lt;br&gt;redis: 20" style="text;html=1;align=center;verticalAlign=middle;resizable=0;points=[];autosize=1;strokeColor=none;fillColor=none;" vertex="1" parent="1">
          <mxGeometry x="590" y="240" width="80" height="40" as="geometry" />
        </mxCell>
        <mxCell id="nmv7OSQEillkZlEBiglJ-18" value="mysql: 21&lt;br&gt;redis: 空" style="text;html=1;align=center;verticalAlign=middle;resizable=0;points=[];autosize=1;strokeColor=none;fillColor=none;" vertex="1" parent="1">
          <mxGeometry x="625" y="270" width="70" height="40" as="geometry" />
        </mxCell>
      </root>
    </mxGraphModel>
  </diagram>
</mxfile>
